<svg viewBox="0 0 860 310" xmlns="http://www.w3.org/2000/svg" style="font-family:'Segoe UI',Arial,sans-serif;background:#F8FAFC;">
  <title>How MTDPrep prepares bank statement records for MTD bridging software</title>
  <rect width="860" height="310" fill="#F8FAFC"/>
  <rect x="0" y="0" width="860" height="56" fill="#2A8A6E"/>
  <text x="430" y="22" text-anchor="middle" fill="white" font-size="11" font-weight="600" letter-spacing="1.5">MTD BRIDGING SOFTWARE WORKFLOW</text>
  <text x="430" y="44" text-anchor="middle" fill="white" font-size="16" font-weight="700">From bank statement to bridging-software-ready</text>
  <rect x="20" y="76" width="234" height="196" rx="12" fill="white" stroke="#2A8A6E" stroke-width="2"/>
  <circle cx="44" cy="94" r="16" fill="#2A8A6E"/>
  <text x="44" y="100" text-anchor="middle" fill="white" font-size="14" font-weight="800">1</text>
  <rect x="111" y="96" width="52" height="64" rx="4" fill="#E8F5F1" stroke="#2A8A6E" stroke-width="1.5"/>
  <line x1="121" y1="114" x2="153" y2="114" stroke="#2A8A6E" stroke-width="1.5"/>
  <line x1="121" y1="124" x2="153" y2="124" stroke="#2A8A6E" stroke-width="1.5"/>
  <line x1="121" y1="134" x2="143" y2="134" stroke="#2A8A6E" stroke-width="1.5"/>
  <text x="137" y="185" text-anchor="middle" fill="#2C3E50" font-size="13" font-weight="700">Upload PDF</text>
  <text x="137" y="205" text-anchor="middle" fill="#4A5568" font-size="11">Download your bank statement</text>
  <text x="137" y="221" text-anchor="middle" fill="#4A5568" font-size="11">as a PDF and upload</text>
  <text x="137" y="237" text-anchor="middle" fill="#4A5568" font-size="11">it to MTDPrep</text>
  <text x="137" y="257" text-anchor="middle" fill="#2A8A6E" font-size="10" font-weight="600">No CSV export needed</text>
  <polygon points="262,174 284,162 284,152 302,174 284,196 284,186" fill="#2A8A6E"/>
  <rect x="310" y="76" width="240" height="196" rx="12" fill="#2A8A6E"/>
  <circle cx="334" cy="94" r="16" fill="white"/>
  <text x="334" y="100" text-anchor="middle" fill="#2A8A6E" font-size="14" font-weight="800">2</text>
  <text x="430" y="158" text-anchor="middle" fill="white" font-size="38" opacity="0.9">✦</text>
  <text x="430" y="186" text-anchor="middle" fill="white" font-size="13" font-weight="700">AI categorises</text>
  <text x="430" y="205" text-anchor="middle" fill="#B2DFCF" font-size="11">Every transaction mapped to</text>
  <text x="430" y="221" text-anchor="middle" fill="#B2DFCF" font-size="11">an HMRC expense category</text>
  <text x="430" y="237" text-anchor="middle" fill="#B2DFCF" font-size="11">Review and correct in one click</text>
  <text x="430" y="257" text-anchor="middle" fill="#E8F5F1" font-size="10" font-weight="600">Motor · Office · Repairs · Prof. Fees</text>
  <polygon points="558,174 580,162 580,152 598,174 580,196 580,186" fill="#2A8A6E"/>
  <rect x="606" y="76" width="234" height="196" rx="12" fill="white" stroke="#2A8A6E" stroke-width="2"/>
  <circle cx="630" cy="94" r="16" fill="#2A8A6E"/>
  <text x="630" y="100" text-anchor="middle" fill="white" font-size="14" font-weight="800">3</text>
  <rect x="697" y="96" width="56" height="60" rx="4" fill="#E8F5F1" stroke="#2A8A6E" stroke-width="1.5"/>
  <line x1="697" y1="112" x2="753" y2="112" stroke="#D1DCE6" stroke-width="1"/>
  <line x1="719" y1="96" x2="719" y2="156" stroke="#D1DCE6" stroke-width="1"/>
  <rect x="699" y="114" width="18" height="10" rx="2" fill="#2A8A6E" opacity="0.6"/>
  <rect x="721" y="114" width="28" height="10" rx="2" fill="#D1DCE6"/>
  <rect x="699" y="128" width="18" height="10" rx="2" fill="#2A8A6E" opacity="0.4"/>
  <rect x="721" y="128" width="28" height="10" rx="2" fill="#D1DCE6"/>
  <line x1="723" y1="144" x2="723" y2="154" stroke="#2A8A6E" stroke-width="2"/>
  <polygon points="717,150 729,150 723,158" fill="#2A8A6E"/>
  <text x="723" y="185" text-anchor="middle" fill="#2C3E50" font-size="13" font-weight="700">Export ready</text>
  <text x="723" y="205" text-anchor="middle" fill="#4A5568" font-size="11">Download for 123 Sheets,</text>
  <text x="723" y="221" text-anchor="middle" fill="#4A5568" font-size="11">Absolute Excel, or VT</text>
  <text x="723" y="237" text-anchor="middle" fill="#4A5568" font-size="11">Digital link stays intact</text>
  <text x="723" y="257" text-anchor="middle" fill="#2A8A6E" font-size="10" font-weight="600">Bridging software ready</text>
  <rect x="0" y="278" width="860" height="32" fill="#E8F5F1"/>
  <text x="430" y="298" text-anchor="middle" fill="#1F6E57" font-size="11" font-weight="600">Your data never leaves your browser session · mtdprep.co.uk</text>
</svg>
