<svg viewBox="0 0 800 420" xmlns="http://www.w3.org/2000/svg">
  <rect x="0" y="0" width="800" height="420" fill="#F8FAFC"/>
  <rect x="0" y="0" width="800" height="56" fill="#2A8A6E"/>
  <text x="400" y="35" text-anchor="middle" font-family="'Segoe UI', Arial, sans-serif" font-size="20" font-weight="600" fill="#FFFFFF">Lloyds PDF to MTD-ready records</text>

  <rect x="0" y="360" width="800" height="60" fill="#EDF2F7"/>
  <line x1="0" y1="360" x2="800" y2="360" stroke="#D1DCE6" stroke-width="2"/>

  <rect x="70" y="130" width="330" height="200" rx="8" fill="#FFFFFF" stroke="#D1DCE6" stroke-width="2"/>
  <rect x="70" y="130" width="330" height="30" rx="8" fill="#1A6FA8"/>
  <rect x="70" y="150" width="330" height="10" fill="#1A6FA8"/>
  <text x="86" y="151" font-family="'Segoe UI', Arial, sans-serif" font-size="12" font-weight="600" fill="#FFFFFF">Online banking — Statements</text>

  <rect x="88" y="176" width="294" height="20" rx="3" fill="#F8FAFC" stroke="#D1DCE6"/>
  <text x="98" y="190" font-family="'Segoe UI', Arial, sans-serif" font-size="11" fill="#4A5568">June 2026 statement</text>
  <rect x="330" y="180" width="44" height="12" rx="2" fill="#2A8A6E"/>
  <text x="352" y="190" text-anchor="middle" font-family="'Segoe UI', Arial, sans-serif" font-size="10" fill="#FFFFFF">PDF</text>

  <rect x="88" y="204" width="294" height="20" rx="3" fill="#F8FAFC" stroke="#D1DCE6"/>
  <text x="98" y="218" font-family="'Segoe UI', Arial, sans-serif" font-size="11" fill="#4A5568">May 2026 statement</text>
  <rect x="330" y="208" width="44" height="12" rx="2" fill="#2A8A6E"/>
  <text x="352" y="218" text-anchor="middle" font-family="'Segoe UI', Arial, sans-serif" font-size="10" fill="#FFFFFF">PDF</text>

  <rect x="88" y="232" width="294" height="20" rx="3" fill="#F8FAFC" stroke="#D1DCE6"/>
  <text x="98" y="246" font-family="'Segoe UI', Arial, sans-serif" font-size="11" fill="#4A5568">April 2026 statement</text>
  <rect x="330" y="236" width="44" height="12" rx="2" fill="#2A8A6E"/>
  <text x="352" y="246" text-anchor="middle" font-family="'Segoe UI', Arial, sans-serif" font-size="10" fill="#FFFFFF">PDF</text>

  <rect x="88" y="260" width="294" height="20" rx="3" fill="#F8FAFC" stroke="#D1DCE6"/>
  <text x="98" y="274" font-family="'Segoe UI', Arial, sans-serif" font-size="11" fill="#4A5568">March 2026 statement</text>
  <rect x="330" y="264" width="44" height="12" rx="2" fill="#2A8A6E"/>
  <text x="352" y="274" text-anchor="middle" font-family="'Segoe UI', Arial, sans-serif" font-size="10" fill="#FFFFFF">PDF</text>

  <text x="98" y="304" font-family="'Segoe UI', Arial, sans-serif" font-size="11" fill="#4A5568">...one file per month, up to 7 years back</text>
  <rect x="50" y="330" width="370" height="12" rx="4" fill="#D1DCE6"/>

  <rect x="450" y="120" width="200" height="230" rx="4" fill="#FFFFFF" stroke="#D1DCE6" stroke-width="2" transform="rotate(-4 550 235)"/>
  <g transform="rotate(-4 550 235)">
    <rect x="450" y="120" width="200" height="26" fill="#EDF2F7"/>
    <text x="464" y="138" font-family="'Segoe UI', Arial, sans-serif" font-size="12" font-weight="600" fill="#2C3E50">Bank statement</text>
    <line x1="464" y1="164" x2="636" y2="164" stroke="#D1DCE6" stroke-width="1"/>
    <line x1="464" y1="184" x2="636" y2="184" stroke="#D1DCE6" stroke-width="1"/>
    <line x1="464" y1="204" x2="636" y2="204" stroke="#D1DCE6" stroke-width="1"/>
    <line x1="464" y1="224" x2="636" y2="224" stroke="#D1DCE6" stroke-width="1"/>
    <line x1="464" y1="244" x2="636" y2="244" stroke="#D1DCE6" stroke-width="1"/>
    <line x1="464" y1="264" x2="636" y2="264" stroke="#D1DCE6" stroke-width="1"/>
    <line x1="464" y1="284" x2="636" y2="284" stroke="#D1DCE6" stroke-width="1"/>
    <line x1="464" y1="304" x2="636" y2="304" stroke="#D1DCE6" stroke-width="1"/>
    <line x1="464" y1="324" x2="636" y2="324" stroke="#D1DCE6" stroke-width="1"/>
    <text x="464" y="160" font-family="'Segoe UI', Arial, sans-serif" font-size="10" fill="#4A5568">03 JUN  SUMUP *THE OLD FORGE</text>
    <text x="464" y="180" font-family="'Segoe UI', Arial, sans-serif" font-size="10" fill="#4A5568">05 JUN  DD SSE ENERGY</text>
    <text x="464" y="200" font-family="'Segoe UI', Arial, sans-serif" font-size="10" fill="#4A5568">09 JUN  BUILDERS MERCHANT</text>
    <text x="464" y="220" font-family="'Segoe UI', Arial, sans-serif" font-size="10" fill="#4A5568">12 JUN  ACCOUNT FEE</text>
    <text x="464" y="240" font-family="'Segoe UI', Arial, sans-serif" font-size="10" fill="#4A5568">14 JUN  PAYPAL *ARGOS</text>
    <text x="464" y="260" font-family="'Segoe UI', Arial, sans-serif" font-size="10" fill="#4A5568">18 JUN  FUEL STATION</text>
    <text x="464" y="280" font-family="'Segoe UI', Arial, sans-serif" font-size="10" fill="#4A5568">21 JUN  CLIENT PAYMENT IN</text>
    <text x="464" y="300" font-family="'Segoe UI', Arial, sans-serif" font-size="10" fill="#4A5568">24 JUN  MOBILE PHONE DD</text>
    <text x="464" y="320" font-family="'Segoe UI', Arial, sans-serif" font-size="10" fill="#4A5568">28 JUN  STATIONERY</text>
  </g>

  <ellipse cx="710" cy="330" rx="34" ry="8" fill="#D1DCE6"/>
  <path d="M 680 268 L 686 326 Q 686 334 710 334 Q 734 334 734 326 L 740 268 Z" fill="#FFFFFF" stroke="#D1DCE6" stroke-width="2"/>
  <path d="M 740 282 Q 762 282 762 298 Q 762 312 738 312" fill="none" stroke="#D1DCE6" stroke-width="3"/>
  <rect x="682" y="268" width="56" height="10" rx="2" fill="#2A8A6E"/>

  <text x="790" y="408" text-anchor="end" font-family="'Segoe UI', Arial, sans-serif" font-size="10" fill="#D1DCE6">mtdprep.co.uk</text>
</svg>
