<svg viewBox="0 0 880 380" xmlns="http://www.w3.org/2000/svg">
  <rect x="0" y="0" width="880" height="380" fill="#F8FAFC"/>
  <rect x="0" y="0" width="880" height="56" fill="#2A8A6E"/>
  <text x="440" y="35" text-anchor="middle" font-family="'Segoe UI', Arial, sans-serif" font-size="19" font-weight="600" fill="#FFFFFF">MTD quarterly update deadlines for sole traders</text>

  <line x1="60" y1="150" x2="820" y2="150" stroke="#D1DCE6" stroke-width="4"/>

  <circle cx="150" cy="150" r="9" fill="#2A8A6E"/>
  <rect x="90" y="96" width="120" height="30" rx="15" fill="#2A8A6E"/>
  <text x="150" y="116" text-anchor="middle" font-family="'Segoe UI', Arial, sans-serif" font-size="13" font-weight="600" fill="#FFFFFF">7 August</text>
  <rect x="66" y="180" width="168" height="76" rx="6" fill="#FFFFFF" stroke="#D1DCE6" stroke-width="2"/>
  <text x="150" y="204" text-anchor="middle" font-family="'Segoe UI', Arial, sans-serif" font-size="12" font-weight="600" fill="#2C3E50">Quarter 1</text>
  <text x="150" y="226" text-anchor="middle" font-family="'Segoe UI', Arial, sans-serif" font-size="12" fill="#4A5568">6 April to 5 July</text>
  <text x="150" y="246" text-anchor="middle" font-family="'Segoe UI', Arial, sans-serif" font-size="11" fill="#1A6FA8">First ever update: 2026</text>

  <circle cx="350" cy="150" r="9" fill="#2A8A6E"/>
  <rect x="286" y="96" width="128" height="30" rx="15" fill="#2A8A6E"/>
  <text x="350" y="116" text-anchor="middle" font-family="'Segoe UI', Arial, sans-serif" font-size="13" font-weight="600" fill="#FFFFFF">7 November</text>
  <rect x="266" y="180" width="168" height="76" rx="6" fill="#FFFFFF" stroke="#D1DCE6" stroke-width="2"/>
  <text x="350" y="204" text-anchor="middle" font-family="'Segoe UI', Arial, sans-serif" font-size="12" font-weight="600" fill="#2C3E50">Quarter 2</text>
  <text x="350" y="226" text-anchor="middle" font-family="'Segoe UI', Arial, sans-serif" font-size="12" fill="#4A5568">6 July to 5 October</text>

  <circle cx="550" cy="150" r="9" fill="#2A8A6E"/>
  <rect x="490" y="96" width="120" height="30" rx="15" fill="#2A8A6E"/>
  <text x="550" y="116" text-anchor="middle" font-family="'Segoe UI', Arial, sans-serif" font-size="13" font-weight="600" fill="#FFFFFF">7 February</text>
  <rect x="466" y="180" width="168" height="76" rx="6" fill="#FFFFFF" stroke="#D1DCE6" stroke-width="2"/>
  <text x="550" y="204" text-anchor="middle" font-family="'Segoe UI', Arial, sans-serif" font-size="12" font-weight="600" fill="#2C3E50">Quarter 3</text>
  <text x="550" y="226" text-anchor="middle" font-family="'Segoe UI', Arial, sans-serif" font-size="12" fill="#4A5568">6 Oct to 5 January</text>

  <circle cx="750" cy="150" r="9" fill="#2A8A6E"/>
  <rect x="694" y="96" width="112" height="30" rx="15" fill="#2A8A6E"/>
  <text x="750" y="116" text-anchor="middle" font-family="'Segoe UI', Arial, sans-serif" font-size="13" font-weight="600" fill="#FFFFFF">7 May</text>
  <rect x="666" y="180" width="168" height="76" rx="6" fill="#FFFFFF" stroke="#D1DCE6" stroke-width="2"/>
  <text x="750" y="204" text-anchor="middle" font-family="'Segoe UI', Arial, sans-serif" font-size="12" font-weight="600" fill="#2C3E50">Quarter 4</text>
  <text x="750" y="226" text-anchor="middle" font-family="'Segoe UI', Arial, sans-serif" font-size="12" fill="#4A5568">6 Jan to 5 April</text>

  <rect x="60" y="290" width="760" height="56" rx="6" fill="#E8F5F1" stroke="#2A8A6E" stroke-width="1"/>
  <text x="440" y="313" text-anchor="middle" font-family="'Segoe UI', Arial, sans-serif" font-size="12" font-weight="600" fill="#1F6E57">Who is in scope, and when</text>
  <text x="440" y="333" text-anchor="middle" font-family="'Segoe UI', Arial, sans-serif" font-size="12" fill="#2C3E50">Over £50,000 from April 2026  ·  over £30,000 from April 2027  ·  over £20,000 from April 2028</text>

  <text x="870" y="370" text-anchor="end" font-family="'Segoe UI', Arial, sans-serif" font-size="10" fill="#D1DCE6">mtdprep.co.uk</text>
</svg>
