<svg viewBox="0 0 800 420" xmlns="http://www.w3.org/2000/svg" font-family="'Segoe UI', Arial, sans-serif">
  <rect width="800" height="420" fill="#F8FAFC"/>
  <rect x="0" y="0" width="800" height="64" fill="#2A8A6E"/>
  <text x="400" y="40" text-anchor="middle" fill="#FFFFFF" font-size="24" font-weight="700">Making Tax Digital for Income Tax, explained</text>
  <g transform="translate(420 96)">
    <circle cx="0" cy="40" r="30" fill="#4A5568"/>
    <path d="M-64 150 q64 -74 128 0 z" fill="#4A5568"/>
  </g>
  <rect x="60" y="332" width="680" height="18" rx="4" fill="#D1DCE6"/>
  <g transform="rotate(-6 165 250)">
    <rect x="95" y="175" width="140" height="150" rx="6" fill="#FFFFFF" stroke="#D1DCE6" stroke-width="2"/>
    <rect x="110" y="192" width="110" height="14" rx="3" fill="#1A6FA8"/>
    <rect x="110" y="216" width="110" height="7" rx="3" fill="#D1DCE6"/>
    <rect x="110" y="230" width="110" height="7" rx="3" fill="#D1DCE6"/>
    <rect x="110" y="244" width="90" height="7" rx="3" fill="#D1DCE6"/>
    <rect x="110" y="258" width="110" height="7" rx="3" fill="#D1DCE6"/>
    <rect x="110" y="272" width="80" height="7" rx="3" fill="#D1DCE6"/>
    <text x="165" y="308" text-anchor="middle" fill="#4A5568" font-size="11">Bank statement</text>
  </g>
  <rect x="300" y="182" width="240" height="150" rx="8" fill="#1F6E57"/>
  <rect x="315" y="197" width="210" height="120" rx="4" fill="#FFFFFF"/>
  <text x="420" y="232" text-anchor="middle" fill="#2A8A6E" font-size="16" font-weight="700">MTD, in plain English</text>
  <rect x="335" y="247" width="170" height="9" rx="4" fill="#D1DCE6"/>
  <rect x="335" y="264" width="170" height="9" rx="4" fill="#D1DCE6"/>
  <rect x="335" y="281" width="110" height="9" rx="4" fill="#D1DCE6"/>
  <rect x="288" y="332" width="264" height="12" rx="3" fill="#1F6E57"/>
  <g transform="translate(600 252)">
    <rect x="0" y="0" width="70" height="60" rx="8" fill="#2A8A6E"/>
    <path d="M70 12 h14 a14 14 0 0 1 0 28 h-14" fill="none" stroke="#2A8A6E" stroke-width="8"/>
    <ellipse cx="35" cy="4" rx="30" ry="7" fill="#1F6E57"/>
    <path d="M20 -18 q6 -10 0 -20 M35 -18 q6 -10 0 -20 M50 -18 q6 -10 0 -20" fill="none" stroke="#D1DCE6" stroke-width="3"/>
  </g>
  <text x="788" y="410" text-anchor="end" fill="#D1DCE6" font-size="10">mtdprep.co.uk</text>
</svg>