<svg viewBox="0 0 900 360" xmlns="http://www.w3.org/2000/svg" font-family="'Segoe UI', Arial, sans-serif">
  <rect width="900" height="360" fill="#F8FAFC"/>
  <rect x="0" y="0" width="900" height="58" fill="#2A8A6E"/>
  <text x="450" y="37" text-anchor="middle" fill="#FFFFFF" font-size="22" font-weight="700">Your Making Tax Digital deadlines</text>
  <line x1="90" y1="170" x2="810" y2="170" stroke="#D1DCE6" stroke-width="4"/>
  <circle cx="150" cy="170" r="10" fill="#2A8A6E"/>
  <rect x="96" y="96" width="108" height="34" rx="17" fill="#2A8A6E"/>
  <text x="150" y="118" text-anchor="middle" fill="#FFFFFF" font-size="14" font-weight="700">7 August</text>
  <text x="150" y="205" text-anchor="middle" fill="#4A5568" font-size="13">Quarter 1</text>
  <circle cx="330" cy="170" r="10" fill="#2A8A6E"/>
  <rect x="272" y="96" width="116" height="34" rx="17" fill="#2A8A6E"/>
  <text x="330" y="118" text-anchor="middle" fill="#FFFFFF" font-size="14" font-weight="700">7 November</text>
  <text x="330" y="205" text-anchor="middle" fill="#4A5568" font-size="13">Quarter 2</text>
  <circle cx="510" cy="170" r="10" fill="#2A8A6E"/>
  <rect x="454" y="96" width="112" height="34" rx="17" fill="#2A8A6E"/>
  <text x="510" y="118" text-anchor="middle" fill="#FFFFFF" font-size="14" font-weight="700">7 February</text>
  <text x="510" y="205" text-anchor="middle" fill="#4A5568" font-size="13">Quarter 3</text>
  <circle cx="690" cy="170" r="10" fill="#2A8A6E"/>
  <rect x="642" y="96" width="96" height="34" rx="17" fill="#2A8A6E"/>
  <text x="690" y="118" text-anchor="middle" fill="#FFFFFF" font-size="14" font-weight="700">7 May</text>
  <text x="690" y="205" text-anchor="middle" fill="#4A5568" font-size="13">Quarter 4</text>
  <circle cx="810" cy="170" r="12" fill="#1A6FA8"/>
  <rect x="270" y="256" width="360" height="76" rx="10" fill="#FFFFFF" stroke="#1A6FA8" stroke-width="2"/>
  <text x="450" y="285" text-anchor="middle" fill="#1A6FA8" font-size="15" font-weight="700">Final Declaration</text>
  <text x="450" y="309" text-anchor="middle" fill="#4A5568" font-size="13">Due 31 January — replaces Self Assessment</text>
  <text x="888" y="350" text-anchor="end" fill="#D1DCE6" font-size="10">mtdprep.co.uk</text>
</svg>