<svg viewBox="0 0 920 340" xmlns="http://www.w3.org/2000/svg" font-family="'Segoe UI', Arial, sans-serif">
  <rect width="920" height="340" fill="#F8FAFC"/>
  <rect x="0" y="0" width="920" height="58" fill="#2A8A6E"/>
  <text x="460" y="37" text-anchor="middle" fill="#FFFFFF" font-size="22" font-weight="700">How MTDPrep works</text>
  <rect x="40" y="110" width="240" height="150" rx="10" fill="#FFFFFF" stroke="#D1DCE6" stroke-width="2"/>
  <circle cx="160" cy="150" r="24" fill="#E8F5F1"/>
  <text x="160" y="158" text-anchor="middle" fill="#1F6E57" font-size="22" font-weight="700">1</text>
  <text x="160" y="205" text-anchor="middle" fill="#2C3E50" font-size="17" font-weight="700">Upload PDF</text>
  <text x="160" y="230" text-anchor="middle" fill="#4A5568" font-size="13">Your HSBC bank statement</text>
  <path d="M292 185 h44" stroke="#2A8A6E" stroke-width="4" fill="none"/>
  <path d="M336 185 l-14 -8 v16 z" fill="#2A8A6E"/>
  <rect x="348" y="110" width="240" height="150" rx="10" fill="#FFFFFF" stroke="#D1DCE6" stroke-width="2"/>
  <circle cx="468" cy="150" r="24" fill="#E8F5F1"/>
  <text x="468" y="158" text-anchor="middle" fill="#1F6E57" font-size="22" font-weight="700">2</text>
  <text x="468" y="205" text-anchor="middle" fill="#2C3E50" font-size="17" font-weight="700">AI categorises</text>
  <text x="468" y="230" text-anchor="middle" fill="#4A5568" font-size="13">Into HMRC categories</text>
  <path d="M600 185 h44" stroke="#2A8A6E" stroke-width="4" fill="none"/>
  <path d="M644 185 l-14 -8 v16 z" fill="#2A8A6E"/>
  <rect x="656" y="110" width="240" height="150" rx="10" fill="#FFFFFF" stroke="#D1DCE6" stroke-width="2"/>
  <circle cx="776" cy="150" r="24" fill="#E8F5F1"/>
  <text x="776" y="158" text-anchor="middle" fill="#1F6E57" font-size="22" font-weight="700">3</text>
  <text x="776" y="205" text-anchor="middle" fill="#2C3E50" font-size="17" font-weight="700">Export ready</text>
  <text x="776" y="230" text-anchor="middle" fill="#4A5568" font-size="13">For 123 Sheets, Absolute, VT</text>
  <text x="908" y="330" text-anchor="end" fill="#D1DCE6" font-size="10">mtdprep.co.uk</text>
</svg>