<svg viewBox="0 0 960 430" xmlns="http://www.w3.org/2000/svg" font-family="'Segoe UI', Arial, sans-serif">
  <rect x="0" y="0" width="960" height="430" fill="#F8FAFC"/>
  <rect x="0" y="0" width="960" height="64" fill="#2A8A6E"/>
  <text x="30" y="40" font-size="20" fill="#FFFFFF" font-weight="600">How MTDPrep Turns a Bank Statement into MTD-Ready Records</text>

  <!-- Step 1 -->
  <rect x="50" y="130" width="250" height="240" rx="10" fill="#FFFFFF" stroke="#D1DCE6" stroke-width="2"/>
  <circle cx="175" cy="180" r="30" fill="#2A8A6E"/>
  <text x="175" y="188" font-size="22" fill="#FFFFFF" font-weight="700" text-anchor="middle">1</text>
  <rect x="140" y="225" width="70" height="86" rx="4" fill="#E8F5F1" stroke="#2A8A6E" stroke-width="1.5"/>
  <text x="175" y="272" font-size="11" fill="#1F6E57" font-weight="700" text-anchor="middle">PDF</text>
  <text x="175" y="330" font-size="14.5" fill="#2C3E50" font-weight="600" text-anchor="middle">Upload bank</text>
  <text x="175" y="348" font-size="14.5" fill="#2C3E50" font-weight="600" text-anchor="middle">statement PDF</text>

  <!-- Arrow 1 -->
  <path d="M312 220 L368 220" stroke="#2A8A6E" stroke-width="4" fill="none"/>
  <path d="M368 220 L354 210 M368 220 L354 230" stroke="#2A8A6E" stroke-width="4" fill="none" stroke-linecap="round"/>

  <!-- Step 2 -->
  <rect x="380" y="130" width="250" height="240" rx="10" fill="#FFFFFF" stroke="#D1DCE6" stroke-width="2"/>
  <circle cx="505" cy="180" r="30" fill="#2A8A6E"/>
  <text x="505" y="188" font-size="22" fill="#FFFFFF" font-weight="700" text-anchor="middle">2</text>

  <rect x="440" y="220" width="130" height="24" rx="12" fill="#1A6FA8"/>
  <text x="505" y="236" font-size="11.5" fill="#FFFFFF" font-weight="600" text-anchor="middle">Motor</text>
  <rect x="440" y="250" width="130" height="24" rx="12" fill="#2A8A6E"/>
  <text x="505" y="266" font-size="11.5" fill="#FFFFFF" font-weight="600" text-anchor="middle">Office</text>
  <rect x="440" y="280" width="130" height="24" rx="12" fill="#1F6E57"/>
  <text x="505" y="296" font-size="11.5" fill="#FFFFFF" font-weight="600" text-anchor="middle">Repairs</text>

  <text x="505" y="330" font-size="14.5" fill="#2C3E50" font-weight="600" text-anchor="middle">AI categorises</text>
  <text x="505" y="348" font-size="14.5" fill="#2C3E50" font-weight="600" text-anchor="middle">every transaction</text>

  <!-- Arrow 2 -->
  <path d="M642 220 L698 220" stroke="#2A8A6E" stroke-width="4" fill="none"/>
  <path d="M698 220 L684 210 M698 220 L684 230" stroke="#2A8A6E" stroke-width="4" fill="none" stroke-linecap="round"/>

  <!-- Step 3 -->
  <rect x="710" y="130" width="220" height="240" rx="10" fill="#FFFFFF" stroke="#2A8A6E" stroke-width="2.5"/>
  <circle cx="820" cy="180" r="30" fill="#2A8A6E"/>
  <text x="820" y="188" font-size="22" fill="#FFFFFF" font-weight="700" text-anchor="middle">3</text>
  <rect x="785" y="222" width="70" height="86" rx="4" fill="#E8F5F1" stroke="#2A8A6E" stroke-width="1.5"/>
  <path d="M800 260 h40 M800 275 h40 M800 290 h28" stroke="#2A8A6E" stroke-width="2.5" stroke-linecap="round"/>
  <text x="820" y="330" font-size="14.5" fill="#2C3E50" font-weight="600" text-anchor="middle">Export to bridging</text>
  <text x="820" y="348" font-size="14.5" fill="#2C3E50" font-weight="600" text-anchor="middle">software</text>

  <text x="920" y="412" font-size="10" fill="#D1DCE6" text-anchor="end">mtdprep.co.uk</text>
</svg>
