<svg viewBox="0 0 800 440" xmlns="http://www.w3.org/2000/svg" font-family="'Segoe UI', Arial, sans-serif">
  <rect width="800" height="440" fill="#F8FAFC"/>
  <rect x="0" y="0" width="800" height="64" fill="#2A8A6E"/>
  <text x="40" y="41" fill="#FFFFFF" font-size="23" font-weight="700">Two HMRC-recognised routes to MTD</text>

  <rect x="40" y="90" width="345" height="320" rx="10" fill="#FFFFFF" stroke="#D1DCE6" stroke-width="2"/>
  <rect x="40" y="90" width="345" height="52" rx="10" fill="#1A6FA8"/>
  <rect x="40" y="120" width="345" height="22" fill="#1A6FA8"/>
  <text x="212" y="123" fill="#FFFFFF" font-size="17" font-weight="700" text-anchor="middle">Full accounting software</text>

  <text x="64" y="180" fill="#2C3E50" font-size="14" font-weight="600">£7–£15 per month</text>
  <text x="64" y="200" fill="#4A5568" font-size="13">(£84–£180 a year)</text>

  <circle cx="70" cy="230" r="4" fill="#1A6FA8"/>
  <text x="86" y="235" fill="#4A5568" font-size="13.5">Live bank feeds</text>
  <circle cx="70" cy="260" r="4" fill="#1A6FA8"/>
  <text x="86" y="265" fill="#4A5568" font-size="13.5">Invoicing &amp; reporting</text>
  <circle cx="70" cy="290" r="4" fill="#1A6FA8"/>
  <text x="86" y="295" fill="#4A5568" font-size="13.5">Features you may not use</text>
  <circle cx="70" cy="320" r="4" fill="#1A6FA8"/>
  <text x="86" y="325" fill="#4A5568" font-size="13.5">A new system to learn</text>

  <rect x="64" y="352" width="297" height="40" rx="6" fill="#EAF1F7"/>
  <text x="212" y="377" fill="#1A6FA8" font-size="13.5" font-weight="600" text-anchor="middle">Best for complex accounts</text>

  <rect x="415" y="90" width="345" height="320" rx="10" fill="#FFFFFF" stroke="#2A8A6E" stroke-width="2.5"/>
  <rect x="415" y="90" width="345" height="52" rx="10" fill="#2A8A6E"/>
  <rect x="415" y="120" width="345" height="22" fill="#2A8A6E"/>
  <text x="587" y="123" fill="#FFFFFF" font-size="17" font-weight="700" text-anchor="middle">Spreadsheet + bridging</text>

  <text x="439" y="180" fill="#2C3E50" font-size="14" font-weight="600">Often under £40 per year</text>
  <text x="439" y="200" fill="#4A5568" font-size="13">(billed annually)</text>

  <circle cx="445" cy="230" r="4" fill="#2A8A6E"/>
  <text x="461" y="235" fill="#4A5568" font-size="13.5">Keep your own spreadsheet</text>
  <circle cx="445" cy="260" r="4" fill="#2A8A6E"/>
  <text x="461" y="265" fill="#4A5568" font-size="13.5">No bank feed needed</text>
  <circle cx="445" cy="290" r="4" fill="#2A8A6E"/>
  <text x="461" y="295" fill="#4A5568" font-size="13.5">123 Sheets, Absolute, VT</text>
  <circle cx="445" cy="320" r="4" fill="#2A8A6E"/>
  <text x="461" y="325" fill="#4A5568" font-size="13.5">Fully MTD-compliant</text>

  <rect x="439" y="352" width="297" height="40" rx="6" fill="#E8F5F1"/>
  <text x="587" y="377" fill="#1F6E57" font-size="13.5" font-weight="600" text-anchor="middle">Best for simple accounts</text>

  <text x="760" y="430" fill="#D1DCE6" font-size="10" text-anchor="end">mtdprep.co.uk</text>
</svg>