<svg viewBox="0 0 800 420" xmlns="http://www.w3.org/2000/svg" role="img">
  <title>Sole trader reviewing HMRC expense categories at home office desk</title>
  <desc>Flat illustration of a sole trader sitting at a home office desk with a laptop, receipts, and a cup of tea, representing MTD expense categorisation</desc>
  <rect width="800" height="420" fill="#F8FAFC"/>
  <rect width="800" height="56" fill="#2A8A6E"/>
  <text x="400" y="35" text-anchor="middle" font-family="'Segoe UI', Arial, sans-serif" font-size="18" font-weight="700" fill="white">MTDPrep — Know Your HMRC Expense Categories</text>
  <rect x="80" y="250" width="640" height="14" rx="4" fill="#D1DCE6"/>
  <rect x="310" y="185" width="200" height="130" rx="6" fill="#2C3E50"/>
  <rect x="318" y="193" width="184" height="114" rx="4" fill="#1F6E57"/>
  <rect x="330" y="206" width="120" height="8" rx="2" fill="#2A8A6E"/>
  <rect x="330" y="222" width="80" height="6" rx="2" fill="rgba(255,255,255,0.4)"/>
  <rect x="330" y="234" width="100" height="6" rx="2" fill="rgba(255,255,255,0.3)"/>
  <rect x="330" y="246" width="60" height="6" rx="2" fill="rgba(255,255,255,0.4)"/>
  <rect x="330" y="258" width="90" height="6" rx="2" fill="rgba(255,255,255,0.3)"/>
  <rect x="330" y="270" width="70" height="6" rx="2" fill="rgba(255,255,255,0.4)"/>
  <text x="450" y="210" text-anchor="middle" font-family="'Segoe UI', Arial, sans-serif" font-size="9" fill="white">MTDPrep</text>
  <rect x="310" y="315" width="200" height="18" rx="3" fill="#4A5568"/>
  <rect x="380" y="333" width="60" height="6" rx="3" fill="#2C3E50"/>
  <rect x="160" y="200" width="90" height="120" rx="3" fill="white" stroke="#D1DCE6" stroke-width="1.5"/>
  <rect x="160" y="200" width="90" height="18" rx="3" fill="#2A8A6E"/>
  <text x="205" y="213" text-anchor="middle" font-family="'Segoe UI', Arial, sans-serif" font-size="9" fill="white" font-weight="600">RECEIPT</text>
  <rect x="170" y="228" width="50" height="5" rx="2" fill="#D1DCE6"/>
  <rect x="170" y="240" width="70" height="5" rx="2" fill="#D1DCE6"/>
  <rect x="170" y="252" width="40" height="5" rx="2" fill="#D1DCE6"/>
  <rect x="170" y="264" width="60" height="5" rx="2" fill="#D1DCE6"/>
  <rect x="170" y="280" width="50" height="5" rx="2" fill="#2A8A6E" opacity="0.4"/>
  <text x="205" y="309" text-anchor="middle" font-family="'Segoe UI', Arial, sans-serif" font-size="10" fill="#2A8A6E" font-weight="700">£47.50</text>
  <rect x="215" y="215" width="85" height="110" rx="3" fill="white" stroke="#D1DCE6" stroke-width="1.5"/>
  <rect x="215" y="215" width="85" height="18" rx="3" fill="#1A6FA8"/>
  <text x="257" y="228" text-anchor="middle" font-family="'Segoe UI', Arial, sans-serif" font-size="9" fill="white" font-weight="600">INVOICE</text>
  <rect x="224" y="243" width="55" height="5" rx="2" fill="#D1DCE6"/>
  <rect x="224" y="255" width="40" height="5" rx="2" fill="#D1DCE6"/>
  <rect x="224" y="267" width="60" height="5" rx="2" fill="#D1DCE6"/>
  <text x="257" y="312" text-anchor="middle" font-family="'Segoe UI', Arial, sans-serif" font-size="10" fill="#1A6FA8" font-weight="700">£120.00</text>
  <rect x="545" y="222" width="44" height="50" rx="6" fill="white" stroke="#D1DCE6" stroke-width="1.5"/>
  <path d="M589 235 Q602 235 602 247 Q602 259 589 259" fill="none" stroke="#D1DCE6" stroke-width="2"/>
  <path d="M558 216 Q556 208 560 200" fill="none" stroke="#D1DCE6" stroke-width="1.5" stroke-linecap="round"/>
  <path d="M567 214 Q565 205 569 197" fill="none" stroke="#D1DCE6" stroke-width="1.5" stroke-linecap="round"/>
  <rect x="549" y="230" width="30" height="8" rx="3" fill="#C9956E" opacity="0.5"/>
  <rect x="375" y="300" width="70" height="4" rx="2" fill="#4A5568"/>
  <rect x="382" y="304" width="8" height="50" rx="2" fill="#4A5568"/>
  <rect x="430" y="304" width="8" height="50" rx="2" fill="#4A5568"/>
  <rect x="390" y="290" width="40" height="60" rx="8" fill="#2A8A6E"/>
  <circle cx="410" cy="275" r="22" fill="#F5CBA7"/>
  <ellipse cx="410" cy="256" rx="22" ry="10" fill="#2C3E50"/>
  <rect x="350" y="305" width="42" height="14" rx="7" fill="#2A8A6E" transform="rotate(-15 350 305)"/>
  <rect x="428" y="300" width="42" height="14" rx="7" fill="#2A8A6E" transform="rotate(10 428 300)"/>
  <line x1="250" y1="200" x2="250" y2="168" stroke="#2A8A6E" stroke-width="1.5" stroke-dasharray="4,3"/>
  <rect x="170" y="148" width="160" height="26" rx="4" fill="#2A8A6E"/>
  <text x="250" y="165" text-anchor="middle" font-family="'Segoe UI', Arial, sans-serif" font-size="11" fill="white" font-weight="600">Office Costs — Allowable</text>
  <line x1="590" y1="240" x2="630" y2="180" stroke="#1A6FA8" stroke-width="1.5" stroke-dasharray="4,3"/>
  <rect x="572" y="155" width="176" height="26" rx="4" fill="#1A6FA8"/>
  <text x="660" y="172" text-anchor="middle" font-family="'Segoe UI', Arial, sans-serif" font-size="11" fill="white" font-weight="600">Financial Costs — Allowable</text>
  <rect x="80" y="365" width="640" height="36" rx="6" fill="#E8F5F1"/>
  <text x="400" y="387" text-anchor="middle" font-family="'Segoe UI', Arial, sans-serif" font-size="13" fill="#1F6E57" font-weight="600">Correct HMRC categorisation = lower tax bill + MTD compliance</text>
  <text x="790" y="414" text-anchor="end" font-family="'Segoe UI', Arial, sans-serif" font-size="10" fill="#D1DCE6">mtdprep.co.uk</text>
</svg>
